<svg width="100" height="100" viewBox="0 0 100 100" fill="none" xmlns="http://www.w3.org/2000/svg">
<path d="M-4.37114e-06 50C-3.42549e-06 60.8171 3.50792 71.3424 9.99739 79.9966C16.4868 88.6507 25.6078 94.967 35.9916 97.9976C46.3755 101.028 57.462 100.61 67.5878 96.8046C77.7135 92.9997 86.3322 86.0136 92.1506 76.8947C97.969 67.7758 100.673 57.016 99.8576 46.2297C99.042 35.4435 94.7504 25.2127 87.6268 17.0725C80.5032 8.93229 70.9319 3.32176 60.3492 1.08281C49.7664 -1.15613 38.7429 0.0972649 28.933 4.65491L33.9395 15.4311C41.4182 11.9565 49.8219 11.001 57.8897 12.7079C65.9575 14.4147 73.2542 18.6919 78.6849 24.8976C84.1155 31.1033 87.3873 38.9028 88.0091 47.1257C88.6309 55.3486 86.5693 63.5515 82.1336 70.5033C77.698 77.4551 71.1274 82.7809 63.4081 85.6816C55.6887 88.5823 47.2368 88.9015 39.3207 86.5911C31.4046 84.2807 24.4512 79.4655 19.5039 72.868C14.5567 66.2704 11.8824 58.2464 11.8824 50L-4.37114e-06 50Z" fill="#F59A15"/>
<path d="M82.776 50.0269C82.776 42.83 80.4233 35.8305 76.0763 30.0947C71.7293 24.3589 65.6265 20.2015 58.6976 18.2558C51.7687 16.3101 44.3937 16.6829 37.6963 19.3173C30.9989 21.9517 25.3464 26.7033 21.5999 32.8482C17.8535 38.993 16.2185 46.1942 16.9442 53.3544C17.6699 60.5146 20.7164 67.2413 25.6195 72.5095C30.5227 77.7777 37.0137 81.2986 44.1034 82.5357C51.1932 83.7728 58.493 82.6583 64.8906 79.362L59.2465 68.4076C55.2379 70.473 50.664 71.1713 46.2217 70.3962C41.7794 69.621 37.7123 67.4149 34.6401 64.114C31.5679 60.813 29.6591 56.5982 29.2044 52.1118C28.7497 47.6254 29.7741 43.1134 32.1215 39.2631C34.469 35.4129 38.0107 32.4357 42.2072 30.785C46.4036 29.1343 51.0246 28.9008 55.3661 30.1199C59.7075 31.339 63.5314 33.944 66.2551 37.5379C68.9789 41.1317 70.453 45.5175 70.453 50.0269L82.776 50.0269Z" fill="#098268"/>
<path d="M72.6103 73.8511C76.4997 70.1232 79.4173 65.4998 81.1083 60.3845L62.2501 54.1506C61.5769 56.1871 60.4154 58.0278 58.8669 59.5119L72.6103 73.8511Z" fill="#098268"/>
</svg>
